<svg width="107" height="12" viewBox="0 0 107 12" fill="none" xmlns="http://www.w3.org/2000/svg">
<path id="Wonderland logo" fill-rule="evenodd" clip-rule="evenodd" d="M82.596 7.54654C83.198 9.25139 83.9198 11.3017 83.9198 11.3017H85.8993L82.715 2.47357C82.3493 1.46285 81.9585 0.5 80.8332 0.5C79.7079 0.5 78.8994 2.48766 78.6378 3.2547C78.3376 4.14393 75.972 11.3017 75.972 11.3017H78.7079C78.559 10.0559 78.5062 8.8004 78.5511 7.54654H82.596ZM78.7812 5.05742L78.7936 4.97516C78.9191 4.14267 79.0522 3.25926 79.358 2.472L79.373 2.43303C79.4783 2.15807 79.7272 1.50828 80.1366 1.50828C80.4644 1.50828 80.6985 2.16013 80.797 2.472C80.8758 2.71096 81.9364 5.6795 81.9364 5.6795C81.9797 5.80112 82.0314 5.9478 82.0899 6.11393C82.1976 6.41971 82.3286 6.79138 82.4731 7.19397H78.5677C78.6039 6.48149 78.6748 5.76934 78.7812 5.05742ZM36.8169 0.693567H34.1964C36.0516 3.62455 36.5424 6.75844 36.4068 9.99413L36.3606 9.966C35.9516 9.71835 35.0185 9.15341 33.1519 5.99377L32.8256 5.44052L32.8254 5.44023L32.8252 5.43985L32.825 5.43949C32.2142 4.40313 31.9025 3.87425 31.1476 2.65611C31.0973 2.57505 31.0457 2.48973 30.9924 2.4017L30.9921 2.40116L30.9921 2.40111C30.49 1.57126 29.8429 0.501611 28.789 0.501611C28.2652 0.501611 28.0049 0.695929 28.0049 0.695929V11.3041H30.6246C28.7694 8.37314 28.2793 5.23925 28.415 2.00356C28.9073 2.00356 30.3179 4.59148 30.9279 5.71056L30.9282 5.71125C30.9893 5.82336 31.0424 5.92071 31.0857 5.9992C31.6118 6.94489 34.2544 11.5 36.0327 11.5C36.5566 11.5 36.8169 11.3057 36.8169 11.3057V0.693567ZM12.2873 6.31413C12.7578 4.98926 14.2704 0.693476 14.2704 0.693476L16.1774 0.690405C16.1774 0.690405 13.5349 8.24148 13.0722 9.51856C12.7084 10.5292 12.3202 11.4921 11.1903 11.4921C10.0604 11.4921 9.25432 9.50447 8.99475 8.73743C8.8834 8.40832 8.48979 7.2206 8.0381 5.85502C7.46333 7.49011 6.92937 9.00694 6.74356 9.51856C6.37887 10.5292 5.99235 11.4921 4.86163 11.4921C3.76811 11.4921 3.01856 9.61845 2.69737 8.81554L2.66608 8.73743C2.05521 7.22375 0 0.690405 0 0.690405H2.73581C2.47908 2.76547 2.50201 4.86564 2.80406 6.93464L2.81204 6.9876C2.93903 7.83013 3.07393 8.72514 3.3812 9.52014L3.39525 9.55685C3.49968 9.83044 3.74905 10.4838 4.15904 10.4838C4.48756 10.4838 4.72129 9.8335 4.82002 9.52014C4.89615 9.28118 5.95941 6.31255 5.95941 6.31255C6.42985 4.98768 7.94323 0.691901 7.94323 0.691901H9.84478L9.06063 2.93427C8.94258 3.26929 8.88474 3.62265 8.88971 3.97783C8.90397 4.96823 8.98498 5.95659 9.13202 6.93621L9.14116 6.99685C9.26771 7.83714 9.40204 8.72913 9.70829 9.52171L9.72372 9.56173C9.82956 9.83724 10.0785 10.4853 10.4862 10.4853C10.8155 10.4853 11.0484 9.83508 11.148 9.52171C11.224 9.28275 12.2873 6.31413 12.2873 6.31413ZM59.5873 11.2907V1.08206L59.6645 1.08521C59.9604 1.08521 60.2577 1.08156 60.5554 1.07791C61.027 1.07213 61.4998 1.06633 61.9703 1.07497C62.6346 1.08678 63.3989 1.18158 63.8962 1.66808C64.5006 2.25962 64.588 3.24837 64.1799 3.97305C63.7684 4.70206 62.996 5.04538 62.2356 5.38334C61.8324 5.56259 61.4325 5.74033 61.0916 5.97331C60.8931 6.1096 60.6961 6.27652 60.6346 6.51154C60.5613 6.79121 60.7039 7.07796 60.8481 7.32865C61.5022 8.44448 62.2689 9.48993 63.1373 10.4484C63.3942 10.7376 64.0002 11.3048 64.0002 11.3048H66.4903C64.8331 10.016 63.4927 8.36205 62.3343 6.61177C62.2114 6.42532 62.0837 6.21069 62.1515 5.99126C62.2185 5.7719 62.4588 5.66223 62.6724 5.57995C62.859 5.50857 63.0624 5.43798 63.2744 5.36443C64.5679 4.91561 66.18 4.3562 66.2437 2.83155C66.2641 2.35205 66.0427 1.90862 65.7039 1.57801C65.0569 0.948837 64.1948 0.803178 63.332 0.734206C62.6946 0.683074 59.8466 0.689327 58.4403 0.692415C58.1878 0.692969 57.9819 0.693422 57.8435 0.693422V11.2907H59.5873ZM15.8404 5.99358C15.8404 2.96858 18.3387 0.516382 21.4195 0.516382C24.502 0.516382 26.9987 2.96937 26.9987 5.99358C26.9987 9.01779 24.5004 11.4701 21.4195 11.4701C18.3387 11.4701 15.8404 9.01857 15.8404 5.99358ZM18.0988 5.99752C18.0988 8.81961 19.6067 11.1073 21.4666 11.1073C23.3257 11.1073 24.8383 8.81961 24.8383 5.99752C24.8383 3.17542 23.3265 0.887696 21.4666 0.887696C19.6067 0.887696 18.0988 3.17542 18.0988 5.99752ZM75.2089 11.3017V8.68883C73.4477 10.5104 71.4138 11.0025 69.4666 10.8896V0.697388H67.6629V11.2994L75.2089 11.3017ZM38.3399 0.693628H41.1397C45.7654 0.693628 47.3737 3.0667 47.3737 5.99454C47.3737 8.92237 45.7677 11.3018 41.1413 11.3018H38.3399V0.693628ZM40.1445 10.7918C40.4841 10.893 40.8372 10.9445 41.1918 10.9445C44.462 10.9445 45.4257 8.72813 45.4257 5.99611C45.4257 3.26417 44.462 1.05006 41.1918 1.05006C40.8372 1.0514 40.4841 1.10415 40.1445 1.20674V10.7918ZM56.1486 8.68892L56.1651 11.3018L50.4221 11.2947V11.2995H48.6191V0.697486H50.2787L55.9303 0.693628L55.9138 3.14661C54.1502 1.32508 52.3638 0.984238 50.4245 1.10179V5.86919C51.6033 5.94596 52.8263 5.65771 53.8933 4.55455L53.902 5.8825V6.1176L53.8933 7.44397C52.8263 6.34089 51.601 6.05099 50.4245 6.12933V10.8897C52.3701 11.0026 54.3866 10.5105 56.1486 8.68892ZM95.5824 0.693567H92.9622C94.8164 3.62455 95.3073 6.75844 95.1718 9.99413L95.1251 9.96568C94.7162 9.71786 93.7826 9.15205 91.9181 5.99377C91.7826 5.76456 91.6618 5.5596 91.5506 5.37123L91.5502 5.37053C90.9654 4.37906 90.6515 3.84694 89.9126 2.65611C89.862 2.57442 89.81 2.48838 89.7564 2.39962C89.2552 1.56998 88.6098 0.501611 87.5541 0.501611C87.0301 0.501611 86.77 0.695929 86.77 0.695929V11.3041H89.3894C87.5344 8.37314 87.0443 5.23925 87.1806 2.00356C87.673 2.00356 89.0866 4.59643 89.6958 5.71377L89.6959 5.71385C89.7564 5.82487 89.809 5.92131 89.8519 5.9992C90.3767 6.94489 93.0197 11.5 94.7975 11.5C95.3215 11.5 95.5824 11.3057 95.5824 11.3057V0.693567ZM97.3489 0.693628H100.148C104.774 0.693628 106.382 3.0667 106.382 5.99454C106.382 8.92237 104.776 11.3018 100.15 11.3018H97.3489V0.693628ZM99.1519 10.7918C99.4923 10.893 99.8446 10.9445 100.2 10.9445C103.469 10.9445 104.434 8.72813 104.434 5.99611C104.434 3.26417 103.469 1.05006 100.2 1.05006C99.8446 1.0514 99.4915 1.10415 99.1519 1.20674V10.7918Z" fill="white"/>
</svg>
