<svg width="114" height="20" viewBox="0 0 114 20" fill="none" xmlns="http://www.w3.org/2000/svg">
<g id="Group">
<path id="Vector" d="M41.8486 6.33554C43.8705 6.33554 45.5217 7.98657 45.5217 10.0082C45.5217 12.0298 43.8705 13.6809 41.8486 13.6809C39.8266 13.6809 38.1754 12.0298 38.1754 10.0082C38.1754 7.98657 39.8098 6.33554 41.8486 6.33554ZM41.8486 4.56659C38.8494 4.56659 36.4062 7.0094 36.4062 10.0082C36.4062 13.007 38.8494 15.4499 41.8486 15.4499C44.8477 15.4499 47.2909 13.007 47.2909 10.0082C47.2909 6.99257 44.8477 4.56659 41.8486 4.56659Z" fill="white"/>
<path id="Vector_2" d="M94.57 6.33554C96.5918 6.33554 98.2432 7.98657 98.2432 10.0082C98.2432 12.0298 96.5918 13.6809 94.57 13.6809C92.5483 13.6809 90.8969 12.0298 90.8969 10.0082C90.8969 7.98657 92.5483 6.33554 94.57 6.33554ZM94.57 4.56659C91.5708 4.56659 89.1279 7.0094 89.1279 10.0082C89.1279 13.007 91.5708 15.4499 94.57 15.4499C97.5692 15.4499 100.013 13.007 100.013 10.0082C100.013 6.99257 97.5861 4.56659 94.57 4.56659Z" fill="white"/>
<path id="Vector_3" d="M86.364 11.2717C85.8415 12.6869 84.4936 13.6809 82.9099 13.6809C80.8881 13.6809 79.2368 12.0298 79.2368 10.0082C79.2368 7.98657 80.8881 6.33554 82.9099 6.33554C84.4936 6.33554 85.8415 7.34637 86.364 8.74467H88.2006C87.6443 6.35239 85.4879 4.56659 82.9099 4.56659C79.9107 4.56659 77.4678 7.0094 77.4678 10.0082C77.4678 13.007 79.9107 15.4499 82.9099 15.4499C85.4879 15.4499 87.6443 13.664 88.2006 11.2717H86.364Z" fill="white"/>
<path id="Vector_4" d="M71.0994 6.50524C73.0711 6.50524 74.6717 8.15622 74.6042 10.1442C74.5366 12.0479 72.919 13.5136 71.0155 13.5136H69.0776V6.50524H71.0994ZM71.0994 4.73627H67.3086V15.2826H71.0994C74.0147 15.2826 76.3731 12.924 76.3731 10.0094C76.3731 7.09489 74.0147 4.73627 71.0994 4.73627Z" fill="white"/>
<path id="Vector_5" d="M103.08 4.75281H101.311V15.2654H103.08V4.75281Z" fill="white"/>
<path id="Vector_6" d="M26.9696 15.3147L28.9747 7.58186L30.9797 15.3147H33.4061L36.1525 4.70099H34.3328L32.1929 12.9393L30.0531 4.70099H27.8963L25.7565 12.9393L23.6166 4.70099H21.7969L24.5433 15.3147H26.9696Z" fill="white"/>
<path id="Vector_7" d="M106.618 7.78559L111.976 15.2657H112.179H113.745V4.75311H111.976V12.2332L106.618 4.73627H106.483L106.466 4.75311H104.849V15.2657H106.618V7.78559Z" fill="white"/>
<path id="Vector_8" d="M60.3991 4.75281H58.6299V15.2654H66.0099V13.4965H60.3991V4.75281Z" fill="white"/>
<path id="Vector_9" d="M55.2277 10.9353C56.3061 10.3963 57.0475 9.30114 57.0475 8.02079C57.0475 6.21814 55.5815 4.76929 53.7955 4.76929H50.4594H48.6396V11.2891V15.2819H50.4594V11.2723H51.4703C53.627 11.3397 55.3457 13.0918 55.3457 15.2651H57.1654C57.1823 13.5466 56.424 11.9967 55.2277 10.9353ZM50.4594 9.45282V6.57194H53.7955C54.5875 6.57194 55.2277 7.21214 55.2277 8.00396C55.2277 8.79578 54.5875 9.45282 53.7955 9.45282H50.4594Z" fill="white"/>
<path id="Vector_10" d="M18.9161 6.25151C18.4275 5.1059 17.7367 4.07823 16.8436 3.18533C15.9506 2.29243 14.9397 1.6017 13.7939 1.11313C12.5976 0.607718 11.3339 0.355011 10.0365 0.355011C8.72227 0.355011 7.45857 0.607718 6.27911 1.11313C5.13335 1.6017 4.10554 2.29243 3.21252 3.18533C2.31951 4.07823 1.62869 5.1059 1.14006 6.25151C0.634576 7.43079 0.381836 8.69436 0.381836 10.0084C0.381836 11.3057 0.634576 12.5692 1.14006 13.7654C1.62869 14.911 2.31951 15.9386 3.21252 16.8315C4.10554 17.7244 5.13335 18.4152 6.27911 18.8869C7.47541 19.3923 8.7391 19.645 10.0365 19.645C11.3339 19.645 12.5976 19.3923 13.7939 18.8869C14.9397 18.3983 15.9675 17.7076 16.8605 16.8147C17.7535 15.9218 18.4443 14.8941 18.933 13.7485C19.4385 12.5523 19.6912 11.2888 19.6912 9.9916C19.6912 8.69436 19.4216 7.43079 18.9161 6.25151ZM6.83514 9.09865C7.22267 7.54874 8.63804 6.42001 10.3061 6.42001H17.0121C17.4502 7.2455 17.7198 8.15521 17.8209 9.09865H6.83514ZM17.8209 10.9182C17.7198 11.8616 17.4334 12.7714 17.0121 13.5968H10.3061C8.63804 13.5968 7.2395 12.4513 6.83514 10.9182H17.8209ZM4.49307 4.46571C5.97582 2.98317 7.94722 2.17451 10.0365 2.17451C12.1258 2.17451 14.0972 2.98317 15.5799 4.46571C15.6305 4.51626 15.6642 4.54995 15.7147 4.60049H10.3061C8.85705 4.60049 7.50913 5.15645 6.48129 6.18412C5.67253 6.99276 5.1502 8.00359 4.98171 9.09865H2.25211C2.4543 7.34656 3.22938 5.72925 4.49307 4.46571ZM10.0365 17.8424C7.94722 17.8424 5.97582 17.0337 4.49307 15.5511C3.22938 14.2876 2.4543 12.6534 2.25211 10.9182H4.98171C5.16705 12.0133 5.68938 13.0241 6.48129 13.8328C7.50913 14.8604 8.85705 15.4163 10.3061 15.4163H15.7147C15.6642 15.4669 15.6305 15.5006 15.5799 15.5511C14.0972 17.0337 12.1258 17.8424 10.0365 17.8424Z" fill="white"/>
</g>
</svg>
